<?xml version="1.0" encoding="UTF-8"?>
<!DOCTYPE svg PUBLIC "-//W3C//DTD SVG 1.1//EN" "http://www.w3.org/Graphics/SVG/1.1/DTD/svg11.dtd">
<svg xmlns="http://www.w3.org/2000/svg" version="1.1" width="33px" height="33px" style="shape-rendering:geometricPrecision; text-rendering:geometricPrecision; image-rendering:optimizeQuality; fill-rule:evenodd; clip-rule:evenodd" xmlns:xlink="http://www.w3.org/1999/xlink">
<g><path style="opacity:1" fill="#b3afb7" d="M 24.5,6.5 C 25.3242,9.76439 25.6576,13.0977 25.5,16.5C 23.5168,16.8432 22.1834,16.1765 21.5,14.5C 22.3635,15.463 23.0302,15.463 23.5,14.5C 21.6293,10.5457 18.4626,8.21236 14,7.5C 12.9302,7.52804 12.0968,7.86137 11.5,8.5C 10.8333,8.5 10.1667,8.5 9.5,8.5C 8.41683,8.53944 7.41683,8.87277 6.5,9.5C 5.50515,14.7921 5.17182,20.1254 5.5,25.5C 4.34745,19.6812 4.18079,13.6812 5,7.5C 5.5,7 6,6.5 6.5,6C 12.6812,5.18079 18.6812,5.34745 24.5,6.5 Z"/></g>
<g><path style="opacity:1" fill="#181818" d="M 11.5,8.5 C 12.0968,7.86137 12.9302,7.52804 14,7.5C 18.4626,8.21236 21.6293,10.5457 23.5,14.5C 23.0302,15.463 22.3635,15.463 21.5,14.5C 20.3526,10.0888 18.8526,9.75543 17,13.5C 16.8455,10.4754 15.3455,8.80873 12.5,8.5C 12.1667,8.5 11.8333,8.5 11.5,8.5 Z"/></g>
<g><path style="opacity:1" fill="#454546" d="M 9.5,8.5 C 10.1667,8.5 10.8333,8.5 11.5,8.5C 11.8333,8.5 12.1667,8.5 12.5,8.5C 11.6971,9.42317 11.5304,10.4232 12,11.5C 15.3709,14.7025 18.5375,18.0359 21.5,21.5C 20.8333,22.1667 20.1667,22.8333 19.5,23.5C 16.9396,19.4302 13.7729,15.7635 10,12.5C 9.50999,11.2068 9.34332,9.87344 9.5,8.5 Z"/></g>
<g><path style="opacity:1" fill="#ecebed" d="M 9.5,8.5 C 9.34332,9.87344 9.50999,11.2068 10,12.5C 13.7729,15.7635 16.9396,19.4302 19.5,23.5C 16.0537,24.8659 14.2204,23.5326 14,19.5C 13.0853,20.3279 12.4186,21.3279 12,22.5C 10.907,20.6508 9.57365,18.9842 8,17.5C 8.4933,20.1367 9.82664,22.47 12,24.5C 12.414,24.0426 12.914,23.7093 13.5,23.5C 15.5364,25.3446 17.8697,25.8446 20.5,25C 21.3366,23.9887 21.67,22.8221 21.5,21.5C 22.404,22.209 22.7373,23.209 22.5,24.5C 23.5,24.5 24.5,24.5 25.5,24.5C 25.5,24.8333 25.5,25.1667 25.5,25.5C 25.5,26.1667 25.1667,26.5 24.5,26.5C 18.1082,26.7513 11.7748,26.418 5.5,25.5C 5.17182,20.1254 5.50515,14.7921 6.5,9.5C 7.41683,8.87277 8.41683,8.53944 9.5,8.5 Z"/></g>
<g><path style="opacity:1" fill="#f1f1f2" d="M 12.5,8.5 C 15.3455,8.80873 16.8455,10.4754 17,13.5C 18.8526,9.75543 20.3526,10.0888 21.5,14.5C 22.1834,16.1765 23.5168,16.8432 25.5,16.5C 25.5,19.1667 25.5,21.8333 25.5,24.5C 24.5,24.5 23.5,24.5 22.5,24.5C 22.7373,23.209 22.404,22.209 21.5,21.5C 18.5375,18.0359 15.3709,14.7025 12,11.5C 11.5304,10.4232 11.6971,9.42317 12.5,8.5 Z"/></g>
<g><path style="opacity:0.984" fill="#403c47" d="M 24.5,6.5 C 25.1174,6.61071 25.6174,6.94404 26,7.5C 26.8192,13.6812 26.6525,19.6812 25.5,25.5C 25.5,25.1667 25.5,24.8333 25.5,24.5C 25.5,21.8333 25.5,19.1667 25.5,16.5C 25.6576,13.0977 25.3242,9.76439 24.5,6.5 Z"/></g>
<g><path style="opacity:1" fill="#201f20" d="M 19.5,23.5 C 20.1667,22.8333 20.8333,22.1667 21.5,21.5C 21.67,22.8221 21.3366,23.9887 20.5,25C 17.8697,25.8446 15.5364,25.3446 13.5,23.5C 12.914,23.7093 12.414,24.0426 12,24.5C 9.82664,22.47 8.4933,20.1367 8,17.5C 9.57365,18.9842 10.907,20.6508 12,22.5C 12.4186,21.3279 13.0853,20.3279 14,19.5C 14.2204,23.5326 16.0537,24.8659 19.5,23.5 Z"/></g>
<g><path style="opacity:1" fill="#413c4a" d="M 5.5,25.5 C 11.7748,26.418 18.1082,26.7513 24.5,26.5C 18.6812,27.6525 12.6812,27.8192 6.5,27C 5.94404,26.6174 5.61071,26.1174 5.5,25.5 Z"/></g>
</svg>
