<?xml version="1.0" encoding="UTF-8"?>
<!DOCTYPE svg PUBLIC "-//W3C//DTD SVG 1.1//EN" "http://www.w3.org/Graphics/SVG/1.1/DTD/svg11.dtd">
<svg xmlns="http://www.w3.org/2000/svg" version="1.1" width="51px" height="51px" style="shape-rendering:geometricPrecision; text-rendering:geometricPrecision; image-rendering:optimizeQuality; fill-rule:evenodd; clip-rule:evenodd" xmlns:xlink="http://www.w3.org/1999/xlink">
<g><path style="opacity:0.682" fill="#cacacb" d="M 20.5,7.5 C 18.351,8.73623 16.0177,9.73623 13.5,10.5C 14.979,6.94366 17.3124,5.94366 20.5,7.5 Z"/></g>
<g><path style="opacity:0.887" fill="#f9faf9" d="M 20.5,7.5 C 24.1473,7.62155 26.9806,9.28822 29,12.5C 30.194,10.4746 31.694,10.1413 33.5,11.5C 36.5589,15.228 39.2256,19.228 41.5,23.5C 40.9653,25.1013 39.9653,25.6013 38.5,25C 35.9426,22.1078 33.776,18.9411 32,15.5C 30.6152,19.3125 28.1152,21.9792 24.5,23.5C 27.5,26.8333 30.5,30.1667 33.5,33.5C 32.448,33.3505 31.448,33.5172 30.5,34C 31.8678,35.3402 33.2011,36.6736 34.5,38C 34.4301,38.7648 34.0967,39.2648 33.5,39.5C 30.8333,36.1667 27.8333,33.1667 24.5,30.5C 20.806,24.806 16.1393,20.1393 10.5,16.5C 11.5862,16.38 12.2528,15.7133 12.5,14.5C 12.4573,13.5836 12.1239,12.9169 11.5,12.5C 11.8333,11.5 12.5,10.8333 13.5,10.5C 16.0177,9.73623 18.351,8.73623 20.5,7.5 Z M 24.5,23.5 C 21.5361,21.0381 18.7028,18.3714 16,15.5C 15.4926,14.0039 15.9926,12.8373 17.5,12C 23.4947,10.3212 26.1614,12.6545 25.5,19C 25.2272,20.5328 24.8938,22.0328 24.5,23.5 Z"/></g>
<g><path style="opacity:0.502" fill="#d6d7d6" d="M 11.5,12.5 C 12.1239,12.9169 12.4573,13.5836 12.5,14.5C 12.2528,15.7133 11.5862,16.38 10.5,16.5C 9.14719,14.8716 9.48052,13.5383 11.5,12.5 Z"/></g>
<g><path style="opacity:0.815" fill="#fafbfc" d="M 24.5,30.5 C 23.217,33.843 23.3837,37.1763 25,40.5C 27.9877,41.8052 30.8211,41.4718 33.5,39.5C 34.0967,39.2648 34.4301,38.7648 34.5,38C 33.2011,36.6736 31.8678,35.3402 30.5,34C 31.448,33.5172 32.448,33.3505 33.5,33.5C 39.0813,38.0638 38.4146,41.8971 31.5,45C 26.3747,46.5685 22.5414,45.0685 20,40.5C 18.4117,42.9677 16.5784,43.1343 14.5,41C 11.9681,37.2984 9.6348,33.465 7.5,29.5C 8.03467,27.8987 9.03467,27.3987 10.5,28C 12.9554,31.0777 15.2887,34.2444 17.5,37.5C 18.4274,35.8872 19.2607,34.2205 20,32.5C 21.1096,30.9632 22.6096,30.2965 24.5,30.5 Z"/></g>
</svg>
